<svg width="209" height="64" viewBox="0 0 209 64" fill="none" xmlns="http://www.w3.org/2000/svg">
<path d="M3.52461 49V14H15.7746L21.8246 44.5H22.7246L28.7746 14H41.0246V49H34.6246V18.85H33.7246L27.7246 49H16.8246L10.8246 18.85H9.92461V49H3.52461ZM97.8523 49.7C95.1523 49.7 92.769 49.2167 90.7023 48.25C88.6357 47.2833 87.019 45.9 85.8523 44.1C84.6857 42.3 84.1023 40.1333 84.1023 37.6V36.2H90.6023V37.6C90.6023 39.7 91.2523 41.2833 92.5523 42.35C93.8523 43.3833 95.619 43.9 97.8523 43.9C100.119 43.9 101.802 43.45 102.902 42.55C104.036 41.65 104.602 40.5 104.602 39.1C104.602 38.1333 104.319 37.35 103.752 36.75C103.219 36.15 102.419 35.6667 101.352 35.3C100.319 34.9 99.0523 34.5333 97.5523 34.2L96.4023 33.95C94.0023 33.4167 91.9357 32.75 90.2023 31.95C88.5023 31.1167 87.1857 30.0333 86.2523 28.7C85.3523 27.3667 84.9023 25.6333 84.9023 23.5C84.9023 21.3667 85.4023 19.55 86.4023 18.05C87.4357 16.5167 88.869 15.35 90.7023 14.55C92.569 13.7167 94.7523 13.3 97.2523 13.3C99.7523 13.3 101.969 13.7333 103.902 14.6C105.869 15.4333 107.402 16.7 108.502 18.4C109.636 20.0667 110.202 22.1667 110.202 24.7V26.2H103.702V24.7C103.702 23.3667 103.436 22.3 102.902 21.5C102.402 20.6667 101.669 20.0667 100.702 19.7C99.7357 19.3 98.5857 19.1 97.2523 19.1C95.2523 19.1 93.769 19.4833 92.8023 20.25C91.869 20.9833 91.4023 22 91.4023 23.3C91.4023 24.1667 91.619 24.9 92.0523 25.5C92.519 26.1 93.2023 26.6 94.1023 27C95.0023 27.4 96.1523 27.75 97.5523 28.05L98.7023 28.3C101.202 28.8333 103.369 29.5167 105.202 30.35C107.069 31.1833 108.519 32.2833 109.552 33.65C110.586 35.0167 111.102 36.7667 111.102 38.9C111.102 41.0333 110.552 42.9167 109.452 44.55C108.386 46.15 106.852 47.4167 104.852 48.35C102.886 49.25 100.552 49.7 97.8523 49.7ZM113.625 49L122.825 14H134.325L143.525 49H136.725L134.825 41.3H122.325L120.425 49H113.625ZM123.875 35.2H133.275L129.025 18.15H128.125L123.875 35.2ZM147.714 49V14H154.314V49H147.714ZM174.198 49.7C169.864 49.7 166.431 48.5 163.898 46.1C161.364 43.6667 160.098 40.2 160.098 35.7V27.3C160.098 22.8 161.364 19.35 163.898 16.95C166.431 14.5167 169.864 13.3 174.198 13.3C178.498 13.3 181.814 14.4833 184.148 16.85C186.514 19.1833 187.698 22.4 187.698 26.5V26.8H181.198V26.3C181.198 24.2333 180.614 22.5333 179.448 21.2C178.314 19.8667 176.564 19.2 174.198 19.2C171.864 19.2 170.031 19.9167 168.698 21.35C167.364 22.7833 166.698 24.7333 166.698 27.2V35.8C166.698 38.2333 167.364 40.1833 168.698 41.65C170.031 43.0833 171.864 43.8 174.198 43.8C176.564 43.8 178.314 43.1333 179.448 41.8C180.614 40.4333 181.198 38.7333 181.198 36.7V35.8H187.698V36.5C187.698 40.6 186.514 43.8333 184.148 46.2C181.814 48.5333 178.498 49.7 174.198 49.7Z" fill="#00501E"/>
<path d="M160.12 60.7857C159.747 60.7857 159.419 60.7031 159.136 60.5377C158.859 60.3724 158.64 60.1404 158.48 59.8417C158.325 59.5431 158.243 59.1991 158.232 58.8097H158.416V60.6497H157.936V54.8097H158.536V57.7297L158.304 58.2657C158.315 57.8391 158.4 57.4791 158.56 57.1857C158.725 56.8871 158.944 56.6604 159.216 56.5057C159.493 56.3511 159.808 56.2737 160.16 56.2737C160.469 56.2737 160.749 56.3324 161 56.4497C161.251 56.5671 161.464 56.7271 161.64 56.9297C161.821 57.1324 161.957 57.3671 162.048 57.6337C162.144 57.8951 162.192 58.1724 162.192 58.4657V58.5777C162.192 58.8657 162.144 59.1431 162.048 59.4097C161.952 59.6711 161.813 59.9057 161.632 60.1137C161.456 60.3217 161.24 60.4871 160.984 60.6097C160.728 60.7271 160.44 60.7857 160.12 60.7857ZM160.056 60.2577C160.376 60.2577 160.651 60.1804 160.88 60.0257C161.109 59.8711 161.285 59.6631 161.408 59.4017C161.531 59.1404 161.592 58.8471 161.592 58.5217C161.592 58.1911 161.528 57.8977 161.4 57.6417C161.277 57.3804 161.099 57.1751 160.864 57.0257C160.635 56.8764 160.365 56.8017 160.056 56.8017C159.768 56.8017 159.507 56.8657 159.272 56.9937C159.037 57.1217 158.851 57.3031 158.712 57.5377C158.579 57.7671 158.512 58.0391 158.512 58.3537V58.7457C158.512 59.0444 158.579 59.3084 158.712 59.5377C158.851 59.7617 159.037 59.9377 159.272 60.0657C159.507 60.1937 159.768 60.2577 160.056 60.2577ZM164.869 60.7697C164.362 60.7697 163.976 60.6071 163.709 60.2817C163.442 59.9511 163.309 59.4924 163.309 58.9057V56.4097H163.901V59.0257C163.901 59.3937 163.997 59.6871 164.189 59.9057C164.386 60.1191 164.658 60.2257 165.005 60.2257C165.368 60.2257 165.656 60.1111 165.869 59.8817C166.088 59.6524 166.197 59.3457 166.197 58.9617V56.4097H166.797V60.6497H166.317V58.8817H166.413C166.413 59.2764 166.357 59.6151 166.245 59.8977C166.133 60.1751 165.965 60.3911 165.741 60.5457C165.517 60.6951 165.234 60.7697 164.893 60.7697H164.869ZM168.59 60.6497V56.4177H169.182V60.6497H168.59ZM167.91 56.8977V56.4177H169.182V56.8977H167.91ZM168.718 55.6337C168.574 55.6337 168.465 55.5964 168.39 55.5217C168.321 55.4417 168.286 55.3431 168.286 55.2257C168.286 55.1084 168.321 55.0124 168.39 54.9377C168.465 54.8577 168.574 54.8177 168.718 54.8177C168.862 54.8177 168.969 54.8577 169.038 54.9377C169.107 55.0124 169.142 55.1084 169.142 55.2257C169.142 55.3431 169.107 55.4417 169.038 55.5217C168.969 55.5964 168.862 55.6337 168.718 55.6337ZM170.796 60.6497V54.8097H171.396V60.6497H170.796ZM170.18 55.2977V54.8097H171.396V55.2977H170.18ZM174.488 60.6977C174.194 60.6977 173.941 60.6551 173.728 60.5697C173.514 60.4844 173.349 60.3404 173.232 60.1377C173.114 59.9297 173.056 59.6524 173.056 59.3057V55.0817H173.632V59.3937C173.632 59.6391 173.698 59.8284 173.832 59.9617C173.965 60.0897 174.154 60.1537 174.4 60.1537H175.16V60.6977H174.488ZM172.296 56.8737V56.4177H175.16V56.8737H172.296ZM180.082 60.7857C179.719 60.7857 179.399 60.7244 179.122 60.6017C178.85 60.4737 178.618 60.3057 178.426 60.0977C178.239 59.8844 178.095 59.6471 177.994 59.3857C177.898 59.1244 177.85 58.8577 177.85 58.5857V58.4737C177.85 58.2017 177.901 57.9351 178.002 57.6737C178.103 57.4071 178.25 57.1697 178.442 56.9617C178.634 56.7537 178.866 56.5884 179.138 56.4657C179.415 56.3377 179.73 56.2737 180.082 56.2737C180.439 56.2737 180.754 56.3377 181.026 56.4657C181.303 56.5884 181.538 56.7537 181.73 56.9617C181.922 57.1697 182.066 57.4071 182.162 57.6737C182.263 57.9351 182.314 58.2017 182.314 58.4737V58.5857C182.314 58.8577 182.266 59.1244 182.17 59.3857C182.074 59.6471 181.93 59.8844 181.738 60.0977C181.551 60.3057 181.319 60.4737 181.042 60.6017C180.765 60.7244 180.445 60.7857 180.082 60.7857ZM180.082 60.2497C180.434 60.2497 180.73 60.1724 180.97 60.0177C181.215 59.8577 181.402 59.6497 181.53 59.3937C181.658 59.1324 181.722 58.8444 181.722 58.5297C181.722 58.2097 181.655 57.9217 181.522 57.6657C181.394 57.4044 181.207 57.1991 180.962 57.0497C180.717 56.8951 180.423 56.8177 180.082 56.8177C179.746 56.8177 179.455 56.8951 179.21 57.0497C178.965 57.1991 178.775 57.4044 178.642 57.6657C178.514 57.9217 178.45 58.2097 178.45 58.5297C178.45 58.8444 178.514 59.1324 178.642 59.3937C178.77 59.6497 178.954 59.8577 179.194 60.0177C179.439 60.1724 179.735 60.2497 180.082 60.2497ZM183.538 60.6497V56.4177H184.018V58.1937H183.922C183.922 57.7991 183.98 57.4604 184.098 57.1777C184.215 56.8951 184.391 56.6764 184.626 56.5217C184.86 56.3671 185.156 56.2897 185.514 56.2897H185.538C186.071 56.2897 186.468 56.4577 186.73 56.7937C186.991 57.1244 187.122 57.5911 187.122 58.1937V60.6497H186.53V58.0657C186.53 57.6977 186.428 57.4017 186.226 57.1777C186.023 56.9537 185.74 56.8417 185.378 56.8417C185.004 56.8417 184.703 56.9591 184.474 57.1937C184.25 57.4231 184.138 57.7271 184.138 58.1057V60.6497H183.538Z" fill="#00501E"/>
<path d="M192.167 60.8329V56.2604H192.716V60.3365H195.103V60.8329H192.167Z" fill="#00501E"/>
<path d="M195.661 60.8329V56.2604H198.476V56.7567H196.209V58.2854H198.046V58.7817H196.209V60.3365H198.509V60.8329H195.661Z" fill="#00501E"/>
<path d="M199.066 60.8329V56.2604H200.229L201.823 60.4865H202.006V56.2604H202.549V60.8329H201.385L199.798 56.5998H199.608V60.8329H199.066Z" fill="#00501E"/>
<path d="M204.848 60.9242C204.517 60.9242 204.221 60.8655 203.96 60.748C203.698 60.6306 203.493 60.453 203.343 60.2156C203.193 59.9783 203.117 59.6812 203.117 59.324V59.1868H203.659V59.324C203.659 59.703 203.77 59.9847 203.992 60.1697C204.214 60.3548 204.5 60.4475 204.848 60.4475C205.205 60.4475 205.477 60.3671 205.665 60.2058C205.852 60.0449 205.945 59.8421 205.945 59.5984C205.945 59.4286 205.903 59.2934 205.818 59.1933C205.733 59.0931 205.614 59.0117 205.462 58.9485C205.309 58.8854 205.131 58.8301 204.926 58.7817L204.587 58.6969C204.321 58.6273 204.086 58.5424 203.881 58.4423C203.676 58.3421 203.516 58.2104 203.401 58.047C203.285 57.8837 203.228 57.6735 203.228 57.4169C203.228 57.1599 203.292 56.9378 203.421 56.7508C203.549 56.5638 203.73 56.4197 203.963 56.3196C204.196 56.2194 204.465 56.1691 204.77 56.1691C205.079 56.1691 205.356 56.2224 205.602 56.3289C205.849 56.4355 206.042 56.5924 206.184 56.7992C206.325 57.0059 206.396 57.2664 206.396 57.5798V57.8541H205.854V57.5798C205.854 57.3577 205.807 57.1791 205.713 57.0439C205.619 56.9092 205.491 56.8085 205.328 56.7434C205.164 56.6783 204.978 56.6452 204.769 56.6452C204.469 56.6452 204.227 56.7118 204.044 56.8446C203.861 56.9773 203.77 57.1658 203.77 57.4095C203.77 57.5709 203.809 57.7011 203.887 57.8013C203.966 57.9015 204.077 57.9834 204.22 58.046C204.364 58.1092 204.536 58.165 204.737 58.2128L205.076 58.2977C205.341 58.3544 205.58 58.4314 205.791 58.5296C206.003 58.6278 206.171 58.7605 206.298 58.9283C206.424 59.096 206.487 59.3146 206.487 59.5845C206.487 59.8544 206.42 60.0898 206.285 60.2901C206.15 60.4905 205.959 60.6464 205.713 60.7574C205.468 60.8689 205.179 60.9242 204.848 60.9242Z" fill="#00501E"/>
<path d="M199.337 50.322C199.192 50.322 195.749 50.2919 193.116 47.6586C193.06 47.6028 193.006 47.547 192.953 47.4903C192.401 46.9081 192.139 46.2163 192.195 45.4895C192.244 44.8485 192.539 44.2268 193.027 43.7393C193.514 43.2518 194.135 42.9567 194.777 42.9079C195.448 42.8566 196.09 43.0766 196.643 43.5454C196.703 42.823 197.002 42.2136 197.512 41.775C198 41.3561 198.649 41.1257 199.338 41.1257C200.026 41.1257 200.675 41.3561 201.163 41.775C201.674 42.2136 201.972 42.823 202.032 43.5454C202.585 43.0766 203.227 42.8566 203.899 42.9079C204.54 42.9567 205.161 43.2518 205.648 43.7393C206.136 44.2268 206.431 44.848 206.48 45.4895C206.535 46.2163 206.273 46.9081 205.722 47.4903C205.669 47.5465 205.614 47.6028 205.559 47.6586C202.925 50.2919 199.483 50.322 199.337 50.322ZM194.966 43.4482C194.369 43.4482 193.809 43.7255 193.41 44.1242C192.693 44.8411 192.368 46.0836 193.347 47.1183C193.397 47.1711 193.448 47.2234 193.5 47.2757C195.976 49.7516 199.304 49.7803 199.338 49.7803C199.371 49.7803 202.705 49.7452 205.175 47.2757C205.227 47.2234 205.278 47.1711 205.328 47.1183C206.307 46.084 205.981 44.8411 205.264 44.1247C204.548 43.4077 203.305 43.0826 202.271 44.061C202.218 44.1109 202.166 44.1617 202.113 44.214C202.073 44.2544 202.035 44.2954 201.996 44.3363L201.479 44.8816L201.499 44.1326C201.501 44.0758 201.503 44.0186 201.503 43.9609C201.503 43.8873 201.502 43.8143 201.5 43.7413C201.46 42.3178 200.351 41.6689 199.338 41.6689C198.325 41.6689 197.215 42.3173 197.176 43.7413C197.174 43.8138 197.173 43.8868 197.173 43.9609C197.173 44.0171 197.175 44.0729 197.176 44.1281L197.196 44.8816L196.681 44.3378C196.642 44.2964 196.602 44.2549 196.562 44.214C196.51 44.1617 196.457 44.1109 196.405 44.061C195.944 43.6253 195.443 43.4482 194.966 43.4482Z" fill="#00501E"/>
<path d="M206.389 54.3178C205.418 54.7638 204.31 54.8803 203.261 54.6444C202.243 54.4155 201.351 53.8855 200.666 53.1074C200.733 53.1538 200.802 53.1987 200.873 53.2416C201.459 53.5949 202.111 53.7725 202.762 53.7725C203.341 53.7725 203.92 53.6324 204.454 53.3502C204.492 53.3304 204.529 53.3097 204.567 53.2885L204.298 52.8168C204.266 52.8355 204.233 52.8533 204.2 52.8706C203.236 53.3803 202.097 53.3457 201.153 52.7773C200.188 52.1956 199.611 51.1776 199.611 50.0546V49.8454H199.606H199.068H199.063V50.0546C199.063 51.1776 198.486 52.1956 197.521 52.7773C196.577 53.3457 195.438 53.3808 194.474 52.8706C194.441 52.8533 194.408 52.8355 194.376 52.8168L194.107 53.2885C194.145 53.3097 194.182 53.3304 194.22 53.3502C194.754 53.6324 195.333 53.7725 195.912 53.7725C196.563 53.7725 197.214 53.5949 197.801 53.2416C197.872 53.1992 197.941 53.1543 198.008 53.1074C197.323 53.8855 196.431 54.4155 195.413 54.6444C194.364 54.8808 193.256 54.7643 192.285 54.3178L192.012 54.7905C192.738 55.1319 193.534 55.3066 194.334 55.3066C194.735 55.3066 195.138 55.2627 195.532 55.1739C196.749 54.9 197.805 54.2388 198.586 53.2628C198.769 53.0349 198.927 52.7901 199.063 52.534V55.3066H199.605V52.5247C199.742 52.7842 199.902 53.0324 200.087 53.2628C200.868 54.2388 201.924 54.8995 203.141 55.1739C203.536 55.2627 203.938 55.3066 204.339 55.3066C205.139 55.3066 205.936 55.1319 206.661 54.7905L206.389 54.3178Z" fill="#00501E"/>
<path d="M198.984 47.4474H198.589C198.589 46.8597 198.018 46.3811 197.314 46.3811C196.611 46.3811 196.039 46.8592 196.039 47.4474H195.645C195.645 46.6421 196.394 45.9864 197.314 45.9864C198.235 45.9864 198.984 46.6416 198.984 47.4474Z" fill="#00501E"/>
<path d="M197.768 47.4558C198.082 47.4558 198.336 47.2015 198.336 46.8878C198.336 46.5742 198.082 46.3199 197.768 46.3199C197.455 46.3199 197.201 46.5742 197.201 46.8878C197.201 47.2015 197.455 47.4558 197.768 47.4558Z" fill="#00501E"/>
<path d="M203.033 47.4474H202.638C202.638 46.8597 202.067 46.3811 201.363 46.3811C200.66 46.3811 200.088 46.8592 200.088 47.4474H199.694C199.694 46.6421 200.443 45.9864 201.363 45.9864C202.284 45.9864 203.033 46.6416 203.033 47.4474Z" fill="#00501E"/>
<path d="M201.818 47.4558C202.132 47.4558 202.386 47.2015 202.386 46.8878C202.386 46.5742 202.132 46.3199 201.818 46.3199C201.504 46.3199 201.25 46.5742 201.25 46.8878C201.25 47.2015 201.504 47.4558 201.818 47.4558Z" fill="#00501E"/>
<path d="M199.331 48.8985C198.865 48.8985 198.434 48.6592 198.233 48.2896L198.58 48.1007C198.713 48.3454 199.008 48.5038 199.331 48.5038C199.654 48.5038 199.949 48.3454 200.083 48.1007L200.429 48.2896C200.227 48.6592 199.796 48.8985 199.331 48.8985Z" fill="#00501E"/>
<path d="M64.0312 36.9688L70.375 34.5625L71.4688 28.875L67.9688 25.8125L64.0312 28.875L62.7188 24.5H60.9688H58.7812L57.9062 28L51.3438 24.5L50.4688 29.75L55.2812 35.4375L59.875 36.9688H64.0312Z" fill="#ABFE2C"/>
<path d="M72.5625 28L73.4375 27.125V27.5625L74.9688 32.8125L71.9062 32.1562L72.5625 28Z" fill="#ABFE2C"/>
<path d="M76.5 32.8125L74.9688 26.0312L76.5 24.7188H78.4688L80 29.0938L79.125 37.8438L77.8125 39.5938L76.5 32.8125Z" fill="#ABFE2C"/>
<path d="M71.0312 27.5625L74.75 24.9375L70.375 21.2188L67.75 20.7812L67.3125 24.9375L67.9688 24.7188L68.625 24.9375L71.0312 27.5625Z" fill="#ABFE2C"/>
<path d="M71.4688 19.0312L71.9062 16.8438L78.0312 23.625L75.625 23.8438L71.0312 20.3438L71.4688 19.0312Z" fill="#ABFE2C"/>
<path d="M64.0312 24.2812V20.3438H65.3438L66.6562 20.7812L66.2188 25.8125L64.0312 24.2812Z" fill="#ABFE2C"/>
<path d="M65.125 19.4688V14.4375L66.6562 14.875L68.625 15.75L71.0312 16.625L70.1562 18.8125L69.9375 20.3438L67.3125 19.9062L65.125 19.4688Z" fill="#ABFE2C"/>
<path d="M60.9688 14.4375H64.0312V14.875V19.4688L59.4375 19.0312L57.4688 15.75L59.4375 14.875L60.9688 14.4375Z" fill="#ABFE2C"/>
<path d="M62.7188 22.0938V20.3438H60.9688H59.4375L58.5625 21.4375V23.4062L59.2188 23.8438L62.9375 23.625L62.7188 22.0938Z" fill="#ABFE2C"/>
<path d="M57.6875 21.6562L58.5625 20.3438L58.125 20.125L57.0312 20.3438L55.5 21L57.0312 21.6562H57.6875Z" fill="#ABFE2C"/>
<path d="M56.375 15.75L58.125 19.0312L55.5 19.9062L53.75 20.7812L50.9062 22.75L48.2812 21.4375L52.4375 17.2812L56.375 15.75Z" fill="#ABFE2C"/>
<path d="M57.4688 22.75L54.4062 21.6562L53.3125 22.0938L52 23.625L57.0312 26.0312L57.6875 24.2812L57.4688 22.75Z" fill="#ABFE2C"/>
<path d="M50.0312 23.8438L47.8438 22.75L46.3125 26.4688L45 30.1875L45.6562 33.4688L46.0938 36.3125L46.75 37.4062L47.4062 35.4375L48.9375 30.8438L50.0312 27.125V23.8438Z" fill="#ABFE2C"/>
<path d="M51.7812 32.5938L50.0312 31.2812L49.1562 32.375L48.9375 34.125V35.875L50.9062 33.4688L51.7812 32.5938Z" fill="#ABFE2C"/>
<path d="M53.75 35L52.4375 33.4688L50.0312 35.875L46.75 38.7188L47.4062 39.5938L51.7812 36.9688L53.75 35Z" fill="#ABFE2C"/>
<path d="M53.3125 36.9688L54.4062 36.3125L55.5 36.9688L57.4688 37.4062L59.2188 37.8438L59.4375 38.5L58.3438 38.9375L55.5 38.7188L54.1875 38.5L53.3125 36.9688Z" fill="#ABFE2C"/>
<path d="M60.75 38.7188L62.0625 37.8438V38.7188V40.25V42.4375L61.8438 44.4062L60.3125 43.9688L56.375 42.4375L57.4688 41.125L58.3438 39.8125L60.75 38.7188Z" fill="#ABFE2C"/>
<path d="M53.0938 39.1562L52 37.8438L48.5 40.4688L51.7812 41.5625L54.8438 42.4375L56.375 40.25H55.9375L54.1875 39.8125L53.0938 39.1562Z" fill="#ABFE2C"/>
<path d="M52.4375 46.1562L48.7188 41.7812L53.0938 42.875L54.8438 43.0938L61.8438 45.5L60.9688 49L57.0312 47.25L52.4375 46.1562Z" fill="#ABFE2C"/>
<path d="M63.375 44.8438L62.9375 41.125L66.2188 41.5625L67.75 43.0938L67.3125 43.9688L66 46.375L66.2188 48.7812H62.2812L62.7188 47.25L62.9375 45.5L63.375 44.8438Z" fill="#ABFE2C"/>
<path d="M63.375 39.8125V37.8438L66 37.4062L69.0625 35.875L66.4375 40.9062L64.0312 40.25L63.375 39.8125Z" fill="#ABFE2C"/>
<path d="M69.2812 37.8438L70.375 35.875L71.9062 37.8438L71.0312 39.8125L68.4062 42L67.75 41.5625L67.9688 40.9062L69.2812 37.8438Z" fill="#ABFE2C"/>
<path d="M71.4688 35V32.8125L73.4375 33.4688L75.625 34.125L76.5 38.9375L75.625 38.5L72.5625 36.3125L71.4688 35Z" fill="#ABFE2C"/>
<path d="M71.9062 39.8125L72.5625 38.5L72.7812 38.2812L74.9688 39.5938L76.5 40.4688L77.5938 40.9062L74.5312 44.625L72.5625 46.375L67.3125 48.5625V46.375L68.625 44.8438L69.7188 43.5312L70.5938 42L71.9062 39.8125Z" fill="#ABFE2C"/>
<path d="M64.0312 36.9688L70.375 34.5625L71.4688 28.875L67.9688 25.8125L64.0312 28.875L62.7188 24.5H60.9688H58.7812L57.9062 28L51.3438 24.5L50.4688 29.75L55.2812 35.4375L59.875 36.9688H64.0312Z" stroke="#00501E" stroke-width="0.4375"/>
<path d="M72.5625 28L73.4375 27.125V27.5625L74.9688 32.8125L71.9062 32.1562L72.5625 28Z" stroke="#00501E" stroke-width="0.4375"/>
<path d="M76.5 32.8125L74.9688 26.0312L76.5 24.7188H78.4688L80 29.0938L79.125 37.8438L77.8125 39.5938L76.5 32.8125Z" stroke="#00501E" stroke-width="0.4375"/>
<path d="M71.0312 27.5625L74.75 24.9375L70.375 21.2188L67.75 20.7812L67.3125 24.9375L67.9688 24.7188L68.625 24.9375L71.0312 27.5625Z" stroke="#00501E" stroke-width="0.4375"/>
<path d="M71.4688 19.0312L71.9062 16.8438L78.0312 23.625L75.625 23.8438L71.0312 20.3438L71.4688 19.0312Z" stroke="#00501E" stroke-width="0.4375"/>
<path d="M64.0312 24.2812V20.3438H65.3438L66.6562 20.7812L66.2188 25.8125L64.0312 24.2812Z" stroke="#00501E" stroke-width="0.4375"/>
<path d="M65.125 19.4688V14.4375L66.6562 14.875L68.625 15.75L71.0312 16.625L70.1562 18.8125L69.9375 20.3438L67.3125 19.9062L65.125 19.4688Z" stroke="#00501E" stroke-width="0.4375"/>
<path d="M60.9688 14.4375H64.0312V14.875V19.4688L59.4375 19.0312L57.4688 15.75L59.4375 14.875L60.9688 14.4375Z" stroke="#00501E" stroke-width="0.4375"/>
<path d="M62.7188 22.0938V20.3438H60.9688H59.4375L58.5625 21.4375V23.4062L59.2188 23.8438L62.9375 23.625L62.7188 22.0938Z" stroke="#00501E" stroke-width="0.4375"/>
<path d="M57.6875 21.6562L58.5625 20.3438L58.125 20.125L57.0312 20.3438L55.5 21L57.0312 21.6562H57.6875Z" stroke="#00501E" stroke-width="0.4375"/>
<path d="M56.375 15.75L58.125 19.0312L55.5 19.9062L53.75 20.7812L50.9062 22.75L48.2812 21.4375L52.4375 17.2812L56.375 15.75Z" stroke="#00501E" stroke-width="0.4375"/>
<path d="M57.4688 22.75L54.4062 21.6562L53.3125 22.0938L52 23.625L57.0312 26.0312L57.6875 24.2812L57.4688 22.75Z" stroke="#00501E" stroke-width="0.4375"/>
<path d="M50.0312 23.8438L47.8438 22.75L46.3125 26.4688L45 30.1875L45.6562 33.4688L46.0938 36.3125L46.75 37.4062L47.4062 35.4375L48.9375 30.8438L50.0312 27.125V23.8438Z" stroke="#00501E" stroke-width="0.4375"/>
<path d="M51.7812 32.5938L50.0312 31.2812L49.1562 32.375L48.9375 34.125V35.875L50.9062 33.4688L51.7812 32.5938Z" stroke="#00501E" stroke-width="0.4375"/>
<path d="M53.75 35L52.4375 33.4688L50.0312 35.875L46.75 38.7188L47.4062 39.5938L51.7812 36.9688L53.75 35Z" stroke="#00501E" stroke-width="0.4375"/>
<path d="M53.3125 36.9688L54.4062 36.3125L55.5 36.9688L57.4688 37.4062L59.2188 37.8438L59.4375 38.5L58.3438 38.9375L55.5 38.7188L54.1875 38.5L53.3125 36.9688Z" stroke="#00501E" stroke-width="0.4375"/>
<path d="M60.75 38.7188L62.0625 37.8438V38.7188V40.25V42.4375L61.8438 44.4062L60.3125 43.9688L56.375 42.4375L57.4688 41.125L58.3438 39.8125L60.75 38.7188Z" stroke="#00501E" stroke-width="0.4375"/>
<path d="M53.0938 39.1562L52 37.8438L48.5 40.4688L51.7812 41.5625L54.8438 42.4375L56.375 40.25H55.9375L54.1875 39.8125L53.0938 39.1562Z" stroke="#00501E" stroke-width="0.4375"/>
<path d="M52.4375 46.1562L48.7188 41.7812L53.0938 42.875L54.8438 43.0938L61.8438 45.5L60.9688 49L57.0312 47.25L52.4375 46.1562Z" stroke="#00501E" stroke-width="0.4375"/>
<path d="M63.375 44.8438L62.9375 41.125L66.2188 41.5625L67.75 43.0938L67.3125 43.9688L66 46.375L66.2188 48.7812H62.2812L62.7188 47.25L62.9375 45.5L63.375 44.8438Z" stroke="#00501E" stroke-width="0.4375"/>
<path d="M63.375 39.8125V37.8438L66 37.4062L69.0625 35.875L66.4375 40.9062L64.0312 40.25L63.375 39.8125Z" stroke="#00501E" stroke-width="0.4375"/>
<path d="M69.2812 37.8438L70.375 35.875L71.9062 37.8438L71.0312 39.8125L68.4062 42L67.75 41.5625L67.9688 40.9062L69.2812 37.8438Z" stroke="#00501E" stroke-width="0.4375"/>
<path d="M71.4688 35V32.8125L73.4375 33.4688L75.625 34.125L76.5 38.9375L75.625 38.5L72.5625 36.3125L71.4688 35Z" stroke="#00501E" stroke-width="0.4375"/>
<path d="M71.9062 39.8125L72.5625 38.5L72.7812 38.2812L74.9688 39.5938L76.5 40.4688L77.5938 40.9062L74.5312 44.625L72.5625 46.375L67.3125 48.5625V46.375L68.625 44.8438L69.7188 43.5312L70.5938 42L71.9062 39.8125Z" stroke="#00501E" stroke-width="0.4375"/>
<path d="M57.9063 28L51.3438 24.5L50.4688 29.75L55.2813 35.4375L59.6563 36.9688H64.0313L70.375 34.5625L71.4688 28.875L67.75 26.0313L64.0313 28.875L62.7188 24.5H58.7813L57.9063 28Z" fill="#00501E"/>
<path d="M58.3438 39.8125L62.0625 37.8438V42.4375L61.625 44.4063L56.375 42.4375L58.3438 39.8125Z" fill="#00501E"/>
<path d="M72.125 32.1563L72.5625 28L73 27.5625L74.75 32.8125L72.125 32.1563Z" fill="#00501E"/>
<path d="M60.9688 14.6562H63.5938L64.0313 19.25L59.4375 18.8125L57.9063 15.75L59.4375 15.0938L60.9688 14.6562Z" fill="#00501E"/>
<path d="M49.1563 32.5938L49.8125 31.2813L51.3438 32.5938L49.1563 35V32.5938Z" fill="#00501E"/>
<path d="M53.9688 39.8125L56.1563 40.4688L54.8438 42.4375L48.5 40.4688L52 37.8438L53.0938 39.375L53.9688 39.8125Z" fill="#00501E"/>
<path d="M64.0313 24.5V20.3438H65.3438L66.6563 21L66.2188 25.8125L64.0313 24.5Z" fill="#00501E"/>
<path d="M73.4375 27.125L73 27.5625M73 27.5625L72.5625 28L72.125 32.1563L74.75 32.8125L73 27.5625ZM51.3438 24.5L57.9063 28L58.7813 24.5H62.7188L64.0313 28.875L67.75 26.0313L71.4688 28.875L70.375 34.5625L64.0313 36.9688H59.6563L55.2813 35.4375L50.4688 29.75L51.3438 24.5ZM62.0625 37.8438L58.3438 39.8125L56.375 42.4375L61.625 44.4063L62.0625 42.4375V37.8438ZM63.5938 14.6562H60.9688L59.4375 15.0938L57.9063 15.75L59.4375 18.8125L64.0313 19.25L63.5938 14.6562ZM49.8125 31.2813L49.1563 32.5938V35L51.3438 32.5938L49.8125 31.2813ZM56.1563 40.4688L53.9688 39.8125L53.0938 39.375L52 37.8438L48.5 40.4688L54.8438 42.4375L56.1563 40.4688ZM64.0313 20.3438V24.5L66.2188 25.8125L66.6563 21L65.3438 20.3438H64.0313Z" stroke="#00501E" stroke-width="0.4375"/>
<g filter="url(#filter0_d_28_301)">
<path d="M57.4688 27.7812L51.3438 24.5L50.25 29.75L55.0625 35.4375L59.6562 36.9688H64.0312L70.375 34.7812L71.4688 28.875L67.9688 25.5938L64.0312 28.4375L62.5 24.5H58.7812L57.4688 27.7812Z" fill="#00501E"/>
<path d="M57.4688 27.7812L51.3438 24.5L50.25 29.75L55.0625 35.4375L59.6562 36.9688H64.0312L70.375 34.7812L71.4688 28.875L67.9688 25.5938L64.0312 28.4375L62.5 24.5H58.7812L57.4688 27.7812Z" stroke="#00501E" stroke-width="0.4375"/>
</g>
<defs>
<filter id="filter0_d_28_301" x="48.2641" y="24.1691" width="25.1915" height="16.5184" filterUnits="userSpaceOnUse" color-interpolation-filters="sRGB">
<feFlood flood-opacity="0" result="BackgroundImageFix"/>
<feColorMatrix in="SourceAlpha" type="matrix" values="0 0 0 0 0 0 0 0 0 0 0 0 0 0 0 0 0 0 127 0" result="hardAlpha"/>
<feOffset dy="1.75"/>
<feGaussianBlur stdDeviation="0.875"/>
<feComposite in2="hardAlpha" operator="out"/>
<feColorMatrix type="matrix" values="0 0 0 0 0 0 0 0 0 0 0 0 0 0 0 0 0 0 0.25 0"/>
<feBlend mode="normal" in2="BackgroundImageFix" result="effect1_dropShadow_28_301"/>
<feBlend mode="normal" in="SourceGraphic" in2="effect1_dropShadow_28_301" result="shape"/>
</filter>
</defs>
</svg>
