<?xml version="1.0" encoding="UTF-8"?><svg id="Layer_2" xmlns="http://www.w3.org/2000/svg" viewBox="0 0 128 128"><defs><style>.cls-1{fill:#212121;fill-rule:evenodd;}</style></defs><g id="Layer_1-2"><path class="cls-1" d="m19.68,0C8.81,0,0,8.81,0,19.68v88.64c0,10.87,8.81,19.68,19.68,19.68h88.64c10.87,0,19.68-8.81,19.68-19.68V19.68c0-10.87-8.81-19.68-19.68-19.68H19.68Zm62.84,33.06c-5.16-5.05-13.72-5.83-21.03-4.56-7.63,1.32-15.88,5.14-21.41,11.77-7.17,8.54-9.03,20.8-7.15,31.44,1.87,10.56,7.78,21.24,18.19,25.31h.02s.02.02.02.02c16.28,6.19,38.66-5.08,46.89-27.48,1.01-2.75-.4-5.79-3.15-6.8-2.75-1.01-5.79.4-6.8,3.15-6.76,18.4-23.81,24.77-33.16,21.24-5.65-2.22-10.08-8.72-11.59-17.28-1.5-8.49.22-17.29,4.83-22.78h0s0-.01,0-.01c3.57-4.28,9.32-7.13,15.09-8.12,6.08-1.05,10.3.21,11.81,1.69.2.2.57.74.71,2.09.14,1.36,0,3.1-.41,5.07-.82,3.95-2.46,7.75-3.15,9.09-.81,1.56-2.35,4.37-4.37,6.7-2.17,2.5-3.84,3.23-4.85,3.2-.57-.04-1.13-.19-1.64-.44-.53-.26-1-.62-1.38-1.06-.39-.44-.68-.95-.87-1.5-.19-.55-.27-1.14-.23-1.73.04-.58.19-1.16.45-1.68.26-.53.62-1,1.06-1.38.44-.39.95-.68,1.5-.87.55-.19,1.14-.27,1.73-.23,2.92.18,5.44-2.04,5.62-4.96.18-2.92-2.04-5.44-4.96-5.62-1.97-.12-3.95.14-5.82.78-1.87.64-3.6,1.64-5.08,2.95-1.48,1.31-2.69,2.9-3.56,4.67-.87,1.78-1.38,3.71-1.5,5.68-.12,1.97.14,3.95.78,5.82.64,1.87,1.64,3.6,2.95,5.08,1.31,1.48,2.9,2.69,4.67,3.56,1.78.87,3.71,1.38,5.68,1.5h.04s.04,0,.04,0c6.1.29,10.68-3.71,13.39-6.82,2.89-3.32,4.9-7.06,5.8-8.8,1.02-1.97,3.05-6.69,4.11-11.79.53-2.56.87-5.47.58-8.31-.29-2.84-1.28-6.05-3.83-8.56h0Z"/></g></svg>